<?xml version="1.0" encoding="utf-8"?>
<!-- Generator: Adobe Illustrator 26.0.2, SVG Export Plug-In . SVG Version: 6.00 Build 0)  -->
<svg version="1.1" id="outline" xmlns="http://www.w3.org/2000/svg" xmlns:xlink="http://www.w3.org/1999/xlink" x="0px" y="0px"
	 viewBox="0 0 512 512" enable-background="new 0 0 512 512" xml:space="preserve">
<g>
	<path d="M219.099,123.241c0,0,0,0.001,0.001,0.001c0,0,0,0.001,0.001,0.001l35.124,51.09c3.485,5.07,9.126,7.796,14.858,7.796
		c3.515,0,7.063-1.024,10.172-3.16l53.604-36.853c2.126,0.843,4.395,1.283,6.681,1.283c3.514,0,7.063-1.024,10.171-3.161
		l16.481-11.331c3.962-2.724,6.626-6.827,7.502-11.555c0.875-4.729-0.143-9.514-2.867-13.476l-10.012-14.562
		c-0.423-0.615-0.392-1.22-0.292-1.619s0.358-0.948,1.021-1.291l29.995-15.537c4.582-2.374,7.929-6.606,9.183-11.612
		c1.253-5.006,0.294-10.316-2.629-14.568l-14.358-20.885c-2.924-4.252-7.539-7.048-12.662-7.671
		c-5.119-0.619-10.272,0.987-14.129,4.415L331.693,42.99c-0.557,0.495-1.161,0.542-1.568,0.489
		c-0.409-0.049-0.985-0.237-1.407-0.852l-10.012-14.562c-2.724-3.962-6.828-6.627-11.556-7.502
		c-4.724-0.877-9.513,0.143-13.475,2.866l-16.481,11.331c-5.131,3.527-7.858,9.261-7.792,15.065l-53.598,36.849
		c-3.962,2.724-6.627,6.828-7.502,11.556s0.143,9.513,2.866,13.475L219.099,123.241z M286.259,47.945l16.481-11.331
		c0.563-0.388,1.124-0.389,1.497-0.318c0.371,0.069,0.896,0.27,1.283,0.834l10.013,14.563c2.924,4.252,7.54,7.048,12.663,7.67
		c5.114,0.623,10.272-0.988,14.127-4.415l25.249-22.443c0.558-0.495,1.16-0.538,1.569-0.489c0.408,0.049,0.984,0.237,1.406,0.852
		l14.359,20.885c0.422,0.615,0.392,1.22,0.292,1.619s-0.358,0.947-1.021,1.29l-29.995,15.537c-4.582,2.374-7.929,6.605-9.182,11.611
		c-1.254,5.006-0.296,10.316,2.628,14.569l10.013,14.562c0.388,0.564,0.387,1.126,0.317,1.497c-0.068,0.372-0.269,0.896-0.833,1.284
		l-16.481,11.331c-0.564,0.387-1.126,0.383-1.497,0.318c-0.371-0.069-0.896-0.27-1.283-0.834l-52.121-75.812
		C285.119,49.817,285.35,48.569,286.259,47.945z M224.034,101.144c0.069-0.371,0.27-0.896,0.834-1.283l51.09-35.125l45.323,65.922
		l-51.09,35.124c-0.908,0.626-2.157,0.396-2.782-0.514l-3.399-4.944l19.777-13.597c3.641-2.504,4.563-7.484,2.061-11.125
		c-2.504-3.642-7.484-4.562-11.125-2.061l-19.777,13.597l-4.532-6.592l19.777-13.597c3.641-2.504,4.563-7.484,2.061-11.125
		c-2.504-3.642-7.484-4.562-11.125-2.061l-19.778,13.597l-4.531-6.591l19.777-13.597c3.641-2.504,4.563-7.484,2.061-11.125
		c-2.504-3.642-7.483-4.562-11.125-2.061l-19.777,13.597l-3.399-4.945C223.965,102.076,223.966,101.515,224.034,101.144z"/>
	<path d="M417,264h-18.409l0.706-24H406c9.925,0,18-8.075,18-18v-12c0-9.925-8.075-18-18-18H106c-9.925,0-18,8.075-18,18v12
		c0,9.925,8.075,18,18,18h6.703l0.706,24H95c-12.683,0-23,10.317-23,23v22.469c0,32.91,12.285,64.345,34.593,88.513
		c3.499,3.791,7.199,7.344,11.07,10.662l2.341,79.592C120.131,492.56,123.673,496,128,496h256c4.327,0,7.869-3.44,7.996-7.765
		l2.341-79.589c3.872-3.318,7.571-6.874,11.07-10.665C427.715,373.813,440,342.379,440,309.469V287C440,274.317,429.683,264,417,264
		z M248,208h112v56c0,4.411-3.589,8-8,8s-8-3.589-8-8v-16c0-4.418-3.582-8-8-8s-8,3.582-8,8c0,4.411-3.589,8-8,8s-8-3.589-8-8
		c0-4.418-3.582-8-8-8s-8,3.582-8,8v64c0,4.411-3.589,8-8,8s-8-3.589-8-8v-56c0-4.418-3.582-8-8-8s-8,3.582-8,8c0,4.411-3.589,8-8,8
		s-8-3.589-8-8V208z M88,309.469V287c0-3.859,3.141-7,7-7h18.879l3.106,105.615C98.281,364.62,88,337.664,88,309.469z M106,224
		c-1.103,0-2-0.897-2-2v-12c0-1.103,0.897-2,2-2h126v16H106z M376.231,480H135.769l-1.747-59.402
		c13.057,8.065,27.46,13.776,42.604,16.825C179.091,448.052,188.632,456,200,456h112c11.368,0,20.908-7.947,23.374-18.575
		c15.144-3.049,29.547-8.757,42.604-16.822L376.231,480z M192,432c0-4.411,3.589-8,8-8h112c4.411,0,8,3.589,8,8s-3.589,8-8,8H200
		C195.589,440,192,436.411,192,432z M378.561,400.821c-13.317,10.094-28.656,17.131-45.01,20.629
		C329.639,413.492,321.45,408,312,408H200c-9.448,0-17.635,5.489-21.548,13.444c-16.353-3.498-31.696-10.526-45.013-20.618
		L128.709,240H232v16c0,13.233,10.767,24,24,24c2.804,0,5.497-0.483,8-1.371V312c0,13.233,10.767,24,24,24s24-10.767,24-24v-41.371
		c2.503,0.888,5.196,1.371,8,1.371c3.121,0,6.104-0.599,8.842-1.688C331.621,280.493,340.95,288,352,288c13.233,0,24-10.767,24-24
		v-24h7.291L378.561,400.821z M376,224v-16h30c1.103,0,2,0.897,2,2v12c0,1.103-0.897,2-2,2H376z M424,309.469
		c0,28.195-10.281,55.151-28.985,76.146L398.121,280H417c3.859,0,7,3.141,7,7V309.469z"/>
</g>
</svg>
