<?xml version="1.0" encoding="UTF-8" standalone="no"?> <svg width="64" height="64" viewBox="0 0 64 64" fill="none" xmlns="http://www.w3.org/2000/svg">
<path d="M61 9H57C56.7348 9 56.4804 9.10536 56.2929 9.29289C56.1054 9.48043 56 9.73478 56 10V11H55V9C55 8.73478 54.8946 8.48043 54.7071 8.29289C54.5196 8.10536 54.2652 8 54 8H21C20.7348 8 20.4804 8.10536 20.2929 8.29289C20.1054 8.48043 20 8.73478 20 9V10H17C16.7348 10 16.4804 10.1054 16.2929 10.2929C16.1054 10.4804 16 10.7348 16 11V11.5L12.4 14.2C12.2758 14.2931 12.175 14.4139 12.1056 14.5528C12.0361 14.6916 12 14.8448 12 15C12 15.1552 12.0361 15.3084 12.1056 15.4472C12.175 15.5861 12.2758 15.7069 12.4 15.8L16 18.5V19C16 19.2652 16.1054 19.5196 16.2929 19.7071C16.4804 19.8946 16.7348 20 17 20H20V21C20 21.2652 20.1054 21.5196 20.2929 21.7071C20.4804 21.8946 20.7348 22 21 22V28H17C16.7949 28.0001 16.5948 28.0634 16.4268 28.1811C16.2589 28.2988 16.1311 28.4653 16.061 28.658L12.061 39.658C12.0209 39.7676 12.0002 39.8833 12 40V61C12 61.2652 12.1054 61.5196 12.2929 61.7071C12.4804 61.8946 12.7348 62 13 62H35C35.2652 62 35.5196 61.8946 35.7071 61.7071C35.8946 61.5196 36 61.2652 36 61V40C35.9998 39.8833 35.9791 39.7676 35.939 39.658L31.939 28.658C31.8689 28.4653 31.7411 28.2988 31.5732 28.1811C31.4052 28.0634 31.2051 28.0001 31 28H27V22H37.307L40 29.181V36.764L39.1 38.553C38.9814 38.7904 38.962 39.0651 39.0461 39.3168C39.1301 39.5685 39.3106 39.7764 39.548 39.895C39.7854 40.0136 40.0601 40.033 40.3118 39.9489C40.5635 39.8649 40.7714 39.6844 40.89 39.447L41.89 37.447C41.9609 37.3086 41.9986 37.1555 42 37V29C42.0002 28.8802 41.9789 28.7613 41.937 28.649L39.443 22H41.4L52.114 42.464C52.1987 42.6257 52.326 42.7611 52.4822 42.8556C52.6384 42.9501 52.8175 43 53 43H56V46C56 46.5304 55.7893 47.0391 55.4142 47.4142C55.0391 47.7893 54.5304 48 54 48H46C44.9391 48 43.9217 48.4214 43.1716 49.1716C42.4214 49.9217 42 50.9391 42 52C42 53.0609 42.4214 54.0783 43.1716 54.8284C43.9217 55.5786 44.9391 56 46 56H56C56.5304 56 57.0391 56.2107 57.4142 56.5858C57.7893 56.9609 58 57.4696 58 58V61C58 61.2652 58.1054 61.5196 58.2929 61.7071C58.4804 61.8946 58.7348 62 59 62C59.2652 62 59.5196 61.8946 59.7071 61.7071C59.8946 61.5196 60 61.2652 60 61V58C60 56.9391 59.5786 55.9217 58.8284 55.1716C58.0783 54.4214 57.0609 54 56 54H46C45.4696 54 44.9609 53.7893 44.5858 53.4142C44.2107 53.0391 44 52.5304 44 52C44 51.4696 44.2107 50.9609 44.5858 50.5858C44.9609 50.2107 45.4696 50 46 50H54C55.0609 50 56.0783 49.5786 56.8284 48.8284C57.5786 48.0783 58 47.0609 58 46V43H61C61.2652 43 61.5196 42.8946 61.7071 42.7071C61.8946 42.5196 62 42.2652 62 42V31C61.9994 30.8243 61.9525 30.6518 61.864 30.5L55 18.729V17H56V18C56 18.2652 56.1054 18.5196 56.2929 18.7071C56.4804 18.8946 56.7348 19 57 19H61C61.2652 19 61.5196 18.8946 61.7071 18.7071C61.8946 18.5196 62 18.2652 62 18V10C62 9.73478 61.8946 9.48043 61.7071 9.29289C61.5196 9.10536 61.2652 9 61 9ZM16 16L14.667 15L16 14V16ZM20 18H18V12H20V18ZM34 60H14V45H34V60ZM34 43H14V41H34V43ZM30.3 30L33.572 39H14.428L17.7 30H30.3ZM23 28V22H25V28H23ZM41 20H22V10H41V20ZM55.157 22.968L56.342 25H50C49.7348 25 49.4804 25.1054 49.2929 25.2929C49.1054 25.4804 49 25.7348 49 26C49 26.2652 49.1054 26.5196 49.2929 26.7071C49.4804 26.8946 49.7348 27 50 27H57C57.1542 26.9971 57.3056 26.958 57.442 26.886L58.675 29H51C50.7348 29 50.4804 29.1054 50.2929 29.2929C50.1054 29.4804 50 29.7348 50 30C50 30.2652 50.1054 30.5196 50.2929 30.7071C50.4804 30.8946 50.7348 31 51 31H59.842L60 31.271V33H53C52.7348 33 52.4804 33.1054 52.2929 33.2929C52.1054 33.4804 52 33.7348 52 34C52 34.2652 52.1054 34.5196 52.2929 34.7071C52.4804 34.8946 52.7348 35 53 35H60V37H55C54.7348 37 54.4804 37.1054 54.2929 37.2929C54.1054 37.4804 54 37.7348 54 38C54 38.2652 54.1054 38.5196 54.2929 38.7071C54.4804 38.8946 54.7348 39 55 39H60V41H53.6L43 20.754V10H53V19C53.0006 19.1757 53.0475 19.3482 53.136 19.5L54.009 21H49C48.7348 21 48.4804 21.1054 48.2929 21.2929C48.1054 21.4804 48 21.7348 48 22C48 22.2652 48.1054 22.5196 48.2929 22.7071C48.4804 22.8946 48.7348 23 49 23H55C55.0532 22.994 55.1057 22.9833 55.157 22.968ZM56 15H55V13H56V15ZM60 17H58V11H60V17Z" fill="black"/>
<path d="M11.293 9.70704C11.4816 9.8892 11.7342 9.98999 11.9964 9.98771C12.2586 9.98544 12.5094 9.88027 12.6948 9.69486C12.8802 9.50945 12.9854 9.25864 12.9877 8.99644C12.9899 8.73425 12.8892 8.48164 12.707 8.29304L6.70699 2.29304C6.51838 2.11088 6.26578 2.01009 6.00358 2.01237C5.74139 2.01465 5.49057 2.11981 5.30517 2.30522C5.11976 2.49063 5.01459 2.74144 5.01231 3.00364C5.01003 3.26584 5.11083 3.51844 5.29299 3.70704L11.293 9.70704Z" fill="black"/>
<path d="M3 16H9C9.26522 16 9.51957 15.8946 9.70711 15.7071C9.89464 15.5196 10 15.2652 10 15C10 14.7348 9.89464 14.4804 9.70711 14.2929C9.51957 14.1054 9.26522 14 9 14H3C2.73478 14 2.48043 14.1054 2.29289 14.2929C2.10536 14.4804 2 14.7348 2 15C2 15.2652 2.10536 15.5196 2.29289 15.7071C2.48043 15.8946 2.73478 16 3 16Z" fill="black"/>
<path d="M12.707 19.293C12.5195 19.1056 12.2652 19.0002 12 19.0002C11.7348 19.0002 11.4805 19.1056 11.293 19.293L5.293 25.293C5.19748 25.3853 5.1213 25.4956 5.06889 25.6176C5.01648 25.7396 4.9889 25.8709 4.98774 26.0036C4.98659 26.1364 5.01189 26.2681 5.06217 26.391C5.11245 26.5139 5.18671 26.6255 5.2806 26.7194C5.37449 26.8133 5.48614 26.8876 5.60904 26.9379C5.73194 26.9881 5.86362 27.0134 5.9964 27.0123C6.12918 27.0111 6.2604 26.9835 6.3824 26.9311C6.5044 26.8787 6.61475 26.8025 6.70699 26.707L12.707 20.707C12.8945 20.5195 12.9998 20.2652 12.9998 20C12.9998 19.7349 12.8945 19.4806 12.707 19.293Z" fill="black"/>
</svg>
